# AST/ASF file generated using VICON BodyLanguage
# -----------------------------------------------
:version 1.10
:name VICON
:units
  mass 1.0
  length 0.45
  angle deg
:documentation
   .ast/.asf automatically generated from VICON data using
   VICON BodyBuilder and BodyLanguage model FoxedUp or BRILLIANT.MOD
:root
   order TX TY TZ RX RY RZ
   axis XYZ
   position 0 0 0  
   orientation 0 0 0 
:bonedata
  begin
     id 1 
     name lhipjoint
     direction 0.623529 -0.717805 0.309788 
     length 2.23224 
     axis 0 0 0  XYZ
  end
  begin
     id 2 
     name lfemur
     direction 0.34202 -0.939693 0  
     length 7.11402  
     axis 0 0 20  XYZ
    dof rx ry rz
    limits (-160.0 20.0)
           (-70.0 70.0)
           (-60.0 70.0)
  end
  begin
     id 3 
     name ltibia
     direction 0.34202 -0.939693 0   
     length 6.78496   
     axis 0 0 20   XYZ
    dof rx
    limits (-10.0 170.0)
  end
  begin
     id 4 
     name lfoot
     direction 0.125078 -0.343648 0.930732   
     length 1.84054   
     axis -90 7.62852e-016 20   XYZ
    dof rx rz
    limits (-45.0 90.0)
           (-70.0 20.0)
  end
  begin
     id 5 
     name ltoes
     direction 1.53565e-011 -4.21893e-011 1   
     length 0.916474   
     axis -90 7.62852e-016 20   XYZ
    dof rx
    limits (-90.0 20.0)
  end
  begin
     id 6 
     name rhipjoint
     direction -0.564688 -0.757748 0.327026   
     length 2.11457  
     axis 0 0 0  XYZ 
  end
  begin
     id 7 
     name rfemur
     direction -0.34202 -0.939693 0   
     length 7.14609   
     axis 0 0 -20   XYZ
    dof rx ry rz
    limits (-160.0 20.0)
           (-70.0 70.0)
           (-70.0 60.0)
  end
  begin
     id 8 
     name rtibia
     direction -0.34202 -0.939693 0   
     length 6.78101   
     axis 0 0 -20   XYZ
    dof rx
    limits (-10.0 170.0)
 end
 begin
     id 9 
     name rfoot
     direction -0.0992671 -0.272734 0.956955   
     length 1.96168  
     axis -90 -7.62852e-016 -20   XYZ
    dof rx rz
    limits (-45.0 90.0)
           (-20.0 70.0)
  end
  begin
     id 10 
     name rtoes
     direction -1.5356e-011 -4.21891e-011 1   
     length 0.982933   
     axis -90 -7.62852e-016 -20   XYZ
    dof rx
    limits (-90.0 20.0)
  end
  begin
     id 11 
     name lowerback
     direction -0.00596953 0.998668 0.0512524   
     length 1.87557   
     axis 0 0 0   XYZ
    dof rx ry rz
    limits (-20.0 45.0)
           (-30.0 30.0)
           (-30.0 30.0)
  end
  begin
     id 12 
     name upperback
     direction 0.00584879 0.999652 0.0257308   
     length 1.87883   
     axis 0 0 0   XYZ
    dof rx ry rz
    limits (-20.0 45.0)
           (-30.0 30.0)
           (-30.0 30.0)
  end
  begin
     id 13 
     name thorax
     direction 0.010104 0.999947 0.00178881   
     length 1.87779   
     axis 0 0 0   XYZ
    dof rx ry rz
    limits (-20.0 45.0)
           (-30.0 30.0)
           (-30.0 30.0)
  end
  begin
     id 14 
     name lowerneck
     direction 0.0120771 0.995934 -0.0892773   
     length 1.40897   
     axis 0 0 0   XYZ
    dof rx ry rz
    limits (-20.0 45.0)
           (-30.0 30.0)
           (-30.0 30.0)
  end
  begin
     id 15 
     name upperneck
     direction -0.030568 0.999465 -0.0116366   
     length 1.38661   
     axis 0 0 0   XYZ
    dof rx ry rz
    limits (-20.0 45.0)
           (-30.0 30.0)
           (-30.0 30.0)
  end
  begin
     id 16
     name head
     direction -0.0170715 0.999854 -0.00104426  
     length 1.47052  
     axis 0 0 0   XYZ
    dof rx ry rz
    limits (-20.0 45.0)
           (-30.0 30.0)
           (-30.0 30.0)
  end
  begin
     id 17 
     name lclavicle
     direction 0.977763 0.206143 0.038532  
     length 3.02424  
     axis 0 0 0   XYZ
    dof ry rz
    limits (-20.0 10.0)
           (0.0 20.0)
  end
  begin
     id 18 
     name lhumerus
     direction 1 -4.48965e-011 -2.62654e-027   
     length 4.68382   
     axis 180 -30 -90   XYZ
    dof rx ry rz
    limits (-60.0 90.0)
           (-90.0 90.0)
           (-90.0 90.0)
  end
  begin
     id 19
     name lradius
     direction 1 -4.48973e-011 -1.54954e-027   
     length 2.98124   
     axis 180 -30 -90   XYZ
    dof rx
    limits (-10.0 170.0)
  end
  begin
     id 20
     name lwrist
     direction 1 -4.48959e-011 7.20928e-028   
     length 1.49062   
     axis -5.52449e-016 90 90   XYZ
    dof ry
    limits (-180.0 0.0)
 end
  begin
     id 21 
     name lhand
     direction 1 -4.48971e-011 1.44186e-027   
     length 0.707595   
     axis -9.20027e-016 90 90   XYZ
    dof rx rz
    limits (-90.0 90.0)
           (-45.0 45.0)
  end
  begin
     id 22 
     name lfingers
     direction 1 -4.48985e-011 2.88371e-027   
     length 0.570481   
     axis -1.84005e-015 90 90   XYZ
    dof rx
    limits (0.0 90.0)
  end
  begin
     id 23
     name lthumb
     direction 0.707107 -6.34929e-011 0.707107   
     length 0.819101   
     axis -90 45 2.85299e-015   XYZ
    dof rx rz
    limits (-45.0 45.0)
           (-45.0 45.0)
  end
  begin
     id 24 
     name rclavicle
     direction -0.958661 0.284411 -0.00895327   
     length 3.11921  
     axis 0 0 0   XYZ 
    dof ry rz
    limits (-10.0 20.0)
           (-20.0 0.0)
  end
  begin
     id 25 
     name rhumerus
     direction -1 -4.48963e-011 -4.22193e-027  
     length 4.75876   
     axis 180 30 90   XYZ
    dof rx ry rz
    limits (-90.0 60.0)
           (-90.0 90.0)
           (-90.0 90.0)
  end
  begin
     id 26 
     name rradius
     direction -1 -4.48968e-011 -1.07616e-027   
     length 2.93293   
     axis 180 30 90   XYZ
    dof rx
    limits (-10.0 170.0)
  end
  begin
     id 27 
     name rwrist
     direction -1 -4.48965e-011 7.20928e-028   
     length 1.46647   
     axis -5.52449e-016 -90 -90   XYZ
    dof ry
    limits (-180.0 0.0)
  end
  begin
     id 28
     name rhand
     direction -1 -4.48971e-011 1.44186e-027   
     length 0.831748   
     axis -9.20027e-016 -90 -90   XYZ
    dof rx rz
    limits (-90.0 90.0)
           (-45.0 45.0)
  end
  begin
     id 29
     name rfingers
     direction -1 -4.48961e-011 2.88371e-027   
     length 0.670577   
     axis -1.84005e-015 -90 -90   XYZ
    dof rx
    limits (0.0 90.0)
  end
  begin
     id 30
     name rthumb
     direction -0.707107 -6.34929e-011 0.707107   
     length 0.962818   
     axis -90 -45 -2.85299e-015   XYZ
    dof rx rz
    limits (-45.0 45.0)
           (-45.0 45.0)
  end
:hierarchy
  begin
    root lhipjoint rhipjoint lowerback
    lhipjoint lfemur
    lfemur ltibia
    ltibia lfoot
    lfoot ltoes
    rhipjoint rfemur
    rfemur rtibia
    rtibia rfoot
    rfoot rtoes
    lowerback upperback
    upperback thorax
    thorax lowerneck lclavicle rclavicle
    lowerneck upperneck
    upperneck head
    lclavicle lhumerus
    lhumerus lradius
    lradius lwrist
    lwrist lhand lthumb
    lhand lfingers
    rclavicle rhumerus
    rhumerus rradius
    rradius rwrist
    rwrist rhand rthumb
    rhand rfingers
  end

#!OML:ASF E:\id_vita\Project 1\Capture day 1\Session 1\Female.ASF
:FULLY-SPECIFIED
:DEGREES
1
root -19.3978 16.5419 -0.928362 -161.861 -81.5333 174.858
lowerback -14.1828 1.63177 -2.46852
upperback -4.42115 2.30745 -0.734317
thorax 3.20798 1.04781 1.00135
lowerneck 4.6625 7.09777 2.34002
upperneck 19.8778 9.17236 -1.69047
head 5.44399 4.24185 -0.635532
rclavicle 1.26477e-014 5.96354e-015
rhumerus -33.341 -3.98376 -93.0326
rradius 19.1021
rwrist 13.7413
rhand -0.684366 6.87311
rfingers 7.12502
rthumb 24.9347 -21.5202
lclavicle 1.26477e-014 5.96354e-015
lhumerus -31.4213 10.7462 85.3668
lradius 16.7159
lwrist -43.9332
lhand 11.9717 23.296
lfingers 7.12502
lthumb 36.994 49.362
rfemur -16.4904 15.0066 15.29
rtibia 18.9887
rfoot -0.456269 -30.5574
rtoes -2.97561
lfemur -18.658 -10.3193 -16.0129
ltibia 23.3823
lfoot -15.5134 13.4888
ltoes -3.30373
2
root -19.3891 16.5383 -0.932922 -160.558 -81.4888 173.572
lowerback -14.094 1.6909 -2.73146
upperback -4.33567 2.43043 -0.830262
thorax 3.23816 1.10967 1.06782
lowerneck 4.55201 6.80621 2.19609
upperneck 19.8081 8.764 -1.58615
head 5.41803 4.04132 -0.592953
rclavicle 5.26779e-015 -1.05356e-014
rhumerus -33.0619 -4.34842 -92.9672
rradius 18.8369
rwrist 14.2836
rhand -1.13253 7.15593
rfingers 7.12502
rthumb 24.5052 -21.2962
lclavicle 5.26779e-015 -1.05356e-014
lhumerus -31.1177 11.2175 85.1526
lradius 16.4258
lwrist -45.0487
lhand 11.7575 23.7599
lfingers 7.12502
lthumb 36.7913 49.878
rfemur -16.6779 15.1515 15.0207
rtibia 19.2845
rfoot -1.10255 -30.7489
rtoes -1.48277
lfemur -18.6527 -10.8169 -16.1214
ltibia 23.1034
lfoot -15.2659 13.873
ltoes -4.30607
3
root -19.3801 16.5443 -0.937906 -161.154 -81.5994 174.322
lowerback -14.1598 1.74905 -2.67317
upperback -4.27746 2.50558 -0.81755
thorax 3.33428 1.14637 1.06402
lowerneck 4.39366 6.57607 2.03313
upperneck 19.8262 8.43689 -1.47035
head 5.42929 3.87741 -0.537595
rclavicle 2.53326e-014 2.08724e-014
rhumerus -32.8202 -4.77913 -92.8203
rradius 18.5788
rwrist 14.9117
rhand -1.60578 7.5504
rfingers 7.12502
rthumb 24.0515 -20.9625
lclavicle 2.53326e-014 2.08724e-014
lhumerus -30.7965 11.9998 84.8758
lradius 15.9687
lwrist -46.2636
lhand 12.1787 25.0116
lfingers 7.12502
lthumb 37.1897 51.0268
rfemur -16.8576 15.1452 15.115
rtibia 19.2684
rfoot -0.450046 -30.5453
rtoes -2.81009
lfemur -18.8095 -11.0774 -15.8924
ltibia 23.1176
lfoot -14.8843 14.1091
ltoes -2.87264
4
root -19.3709 16.5493 -0.94142 -161.35 -81.6622 174.66
lowerback -14.2257 1.73627 -2.68987
upperback -4.20673 2.498 -0.809497
thorax 3.44337 1.14175 1.08434
lowerneck 4.12379 6.43529 2.1103
upperneck 19.9555 8.25077 -1.49434
head 5.51433 3.78807 -0.553278
rclavicle 6.37975e-015 -2.18663e-015
rhumerus -32.6206 -5.14088 -92.7572
rradius 18.4473
rwrist 15.7301
rhand -1.98976 7.72143
rfingers 7.12502
rthumb 23.6832 -20.8396
lclavicle 6.37975e-015 -2.18663e-015
lhumerus -30.5207 13.5896 84.1957
lradius 15.4104
lwrist -48.1725
lhand 12.5962 25.3716
lfingers 7.12502
lthumb 37.5844 51.2827
rfemur -17.0938 14.9764 15.1915
rtibia 19.3035
rfoot 1.73955 -29.8021
rtoes -8.21276
lfemur -18.934 -11.1568 -15.7649
ltibia 23.0864
lfoot -14.954 14.1259
ltoes -2.72689
5
root -19.362 16.5517 -0.945551 -161.005 -81.6479 174.417
lowerback -14.2232 1.70098 -2.78681
upperback -4.12661 2.4723 -0.83834
thorax 3.52414 1.12857 1.10605
lowerneck 4.06732 6.35635 2.39178
upperneck 19.8213 8.17978 -1.71168
head 5.50083 3.76492 -0.668264
rclavicle 2.05556e-014 1.27222e-014
rhumerus -32.3749 -5.11468 -92.931
rradius 18.371
rwrist 16.2708
rhand -2.20185 7.62727
rfingers 7.12502
rthumb 23.4798 -20.9599
lclavicle 2.05556e-014 1.27222e-014
lhumerus -30.2946 15.0364 83.5175
lradius 15.1059
lwrist -49.7463
lhand 12.2734 25.08
lfingers 7.12502
lthumb 37.2792 51.0717
rfemur -17.2101 14.8004 15.1699
rtibia 19.2009
rfoot 0.907949 -30.0086
rtoes -5.92058
lfemur -19.1284 -11.2151 -15.7397
ltibia 23.1769
lfoot -15.0246 14.1811
ltoes -1.47719
6
root -19.3557 16.5513 -0.948426 -161.469 -81.6479 174.891
lowerback -14.0969 1.69648 -2.71763
upperback -4.03575 2.46138 -0.837989
thorax 3.55504 1.12504 1.06352
lowerneck 3.92421 6.27557 2.22446
upperneck 19.8155 8.04636 -1.5389
head 5.50488 3.69894 -0.588306
rclavicle -1.59307e-014 5.96354e-015
rhumerus -32.1242 -4.91319 -93.1348
rradius 18.2001
rwrist 16.6144
rhand -2.43051 7.65536
rfingers 7.12502
rthumb 23.2604 -20.9597
lclavicle -1.59307e-014 5.96354e-015
lhumerus -30.1086 16.0022 83.0939
lradius 14.9168
lwrist -50.643
lhand 10.5469 24.9333
lfingers 7.12502
lthumb 35.6449 51.3363
rfemur -17.1865 14.6763 15.2645
rtibia 19.112
rfoot 2.00349 -29.3868
rtoes -8.58011
lfemur -19.1855 -11.185 -15.6508
ltibia 23.2655
lfoot -15.1353 14.1601
ltoes -4.0423
7
root -19.3445 16.5507 -0.951875 -162.905 -81.713 176.388
lowerback -13.9365 1.69433 -2.53666
upperback -3.99204 2.4319 -0.779328
thorax 3.52083 1.1136 1.01398
lowerneck 3.88533 6.17677 2.08385
upperneck 19.7401 7.89278 -1.39646
head 5.47223 3.6248 -0.527291
rclavicle -3.84493e-014 -1.03368e-014
rhumerus -31.9635 -4.86745 -93.2277
rradius 17.9957
rwrist 17.2794
rhand -2.79086 7.9737
rfingers 7.12502
rthumb 22.9147 -20.6847
lclavicle -3.84493e-014 -1.03368e-014
lhumerus -29.9659 17.2271 82.5687
lradius 14.5233
lwrist -51.7901
lhand 8.81032 24.7251
lfingers 7.12502
lthumb 33.9971 51.5095
rfemur -17.2677 14.6633 15.51
rtibia 19.049
rfoot 0.719501 -29.9174
rtoes -4.99471
lfemur -19.3168 -11.1172 -15.3643
ltibia 23.3411
lfoot -15.3392 14.1079
ltoes -5.01234
8
root -19.3321 16.5541 -0.957631 -163.519 -81.7656 177.176
lowerback -13.9006 1.66215 -2.51571
upperback -3.96802 2.38675 -0.750426
thorax 3.52786 1.092 1.02438
lowerneck 3.84181 6.02331 1.99977
upperneck 19.609 7.67997 -1.34237
head 5.42775 3.52199 -0.505538
rclavicle 3.01718e-014 -1.05356e-014
rhumerus -31.8074 -4.78727 -93.3591
rradius 17.9121
rwrist 17.9159
rhand -3.02073 8.21423
rfingers 7.12502
rthumb 22.6941 -20.4713
lclavicle 3.01718e-014 -1.05356e-014
lhumerus -29.8976 18.6613 81.91
lradius 14.1664
lwrist -53.1056
lhand 9.11883 24.3755
lfingers 7.12502
lthumb 34.2901 51.0944
rfemur -17.4697 14.713 15.5955
rtibia 18.9654
rfoot -0.670712 -30.2974
rtoes -1.21983
lfemur -19.6134 -10.5569 -15.2271
ltibia 23.4244
lfoot -15.5406 13.5687
ltoes -2.21304
9
root -19.3161 16.5572 -0.967113 -164.209 -81.9465 178.145
lowerback -13.9285 1.56942 -2.48659
upperback -3.93402 2.26155 -0.69735
thorax 3.58194 1.03003 1.04458
lowerneck 3.7963 5.89804 1.65112
upperneck 19.3235 7.4777 -1.04887
head 5.31609 3.42478 -0.368185
rclavicle -2.07676e-014 -1.2921e-014
rhumerus -31.5425 -4.49213 -93.5893
rradius 17.9356
rwrist 18.46
rhand -2.9057 8.02079
rfingers 7.12502
rthumb 22.8045 -20.6512
lclavicle -2.07676e-014 -1.2921e-014
lhumerus -29.9022 20.24 81.2062
lradius 14.0183
lwrist -54.4406
lhand 6.6736 24.184
lfingers 7.12502
lthumb 31.965 51.397
rfemur -17.8001 14.7087 15.7278
rtibia 18.9063
rfoot -1.25231 -30.5143
rtoes 0.594145
lfemur -20.074 -10.0867 -14.9763
ltibia 23.4837
lfoot -15.4028 12.9233
ltoes -3.04701
10
root -19.3079 16.5558 -0.971727 -165.637 -81.9804 179.474
lowerback -13.6353 1.59042 -2.27845
upperback -3.78704 2.26715 -0.699688
thorax 3.58612 1.03755 0.920003
lowerneck 3.70003 5.76808 1.418
upperneck 19.1534 7.27179 -0.788681
head 5.25612 3.32894 -0.256807
rclavicle -2.90404e-014 2.10712e-014
rhumerus -31.2337 -4.21254 -93.8761
rradius 17.9268
rwrist 19.1984
rhand -2.6459 7.6161
rfingers 7.12502
rthumb 23.0538 -21.025
lclavicle -2.90404e-014 2.10712e-014
lhumerus -29.8357 21.6562 80.5322
lradius 13.7857
lwrist -55.7106
lhand 5.11073 23.7529
lfingers 7.12502
lthumb 30.4756 51.253
rfemur -17.6885 14.6338 15.9819
rtibia 18.9061
rfoot -1.14456 -30.3096
rtoes 0.44535
lfemur -19.9856 -10.5743 -14.6911
ltibia 23.4918
lfoot -15.3694 13.3891
ltoes -3.79348
11
root -19.2951 16.5536 -0.977093 -166.702 -82.0068 180.537
lowerback -13.3602 1.57981 -2.14129
upperback -3.72089 2.23567 -0.707589
thorax 3.51317 1.02605 0.822597
lowerneck 3.6672 5.66904 1.531
upperneck 19.042 7.15456 -0.889925
head 5.2329 3.27652 -0.310992
rclavicle 7.85199e-015 1.23246e-014
rhumerus -31.0382 -3.79503 -94.227
rradius 17.8967
rwrist 19.7158
rhand -2.67329 7.51721
rfingers 7.12502
rthumb 23.0275 -21.1271
lclavicle 7.85199e-015 1.23246e-014
lhumerus -29.7607 23.0934 79.7968
lradius 13.3994
lwrist -57.013
lhand 4.42721 23.6576
lfingers 7.12502
lthumb 29.8235 51.2767
rfemur -17.7162 14.9066 16.1109
rtibia 18.9117
rfoot -0.913985 -30.4286
rtoes 0.284139
lfemur -20.0567 -10.9737 -14.4377
ltibia 23.5042
lfoot -15.1013 13.8649
ltoes -6.85926
12
root -19.2829 16.5524 -0.988091 -167.733 -82.2247 181.661
lowerback -13.1775 1.47468 -2.09452
upperback -3.7007 2.08676 -0.638595
thorax 3.43838 0.955052 0.839918
lowerneck 3.64463 5.62958 1.53452
upperneck 18.944 7.10806 -0.917969
head 5.20633 3.25503 -0.322417
rclavicle 1.41976e-014 -3.77691e-015
rhumerus -30.9395 -3.43525 -94.4295
rradius 17.845
rwrist 20.0984
rhand -2.80609 7.73547
rfingers 7.12502
rthumb 22.9001 -20.9247
lclavicle 1.41976e-014 -3.77691e-015
lhumerus -29.8522 24.9261 78.9316
lradius 13.0537
lwrist -58.5854
lhand 4.66746 23.8407
lfingers 7.12502
lthumb 30.0527 51.4184
rfemur -17.8308 14.8833 16.3514
rtibia 18.8584
rfoot -0.30143 -30.5513
rtoes -1.11479
lfemur -20.2981 -11.7463 -14.038
ltibia 23.5547
lfoot -14.7454 14.4373
ltoes -4.78571
13
root -19.2749 16.5545 -0.99478 -167.76 -82.2078 181.72
lowerback -12.954 1.52989 -2.09602
upperback -3.67742 2.15978 -0.670629
thorax 3.3404 0.993986 0.812684
lowerneck 3.36967 5.5642 1.60149
upperneck 19.2553 7.00397 -0.851526
head 5.34752 3.20605 -0.304545
rclavicle -7.15625e-015 3.77691e-015
rhumerus -30.8317 -3.27069 -94.5296
rradius 17.7439
rwrist 20.2548
rhand -2.09064 7.75625
rfingers 7.12502
rthumb 23.5865 -20.8172
lclavicle -7.15625e-015 3.77691e-015
lhumerus -29.985 26.7383 78.0627
lradius 12.6722
lwrist -60.3653
lhand 4.76419 23.6728
lfingers 7.12502
lthumb 30.145 51.2337
rfemur -17.8752 14.5134 16.465
rtibia 18.7774
rfoot 0.143403 -30.1553
rtoes -2.53709
lfemur -20.4004 -10.6573 -14.138
ltibia 23.6313
lfoot -15.2082 13.3716
ltoes -6.48614
14
root -19.2655 16.5562 -1.0062 -168.683 -82.1729 182.65
lowerback -12.7078 1.53032 -2.01107
upperback -3.59772 2.15247 -0.69711
thorax 3.29443 0.9936 0.730598
lowerneck 3.94478 5.3527 1.14085
upperneck 18.2969 6.68704 -0.491037
head 4.91999 3.06237 -0.15837
rclavicle -3.07247e-014 7.15625e-015
rhumerus -30.6426 -2.33662 -95.1029
rradius 17.7926
rwrist 19.5627
rhand -1.47121 7.52591
rfingers 7.12502
rthumb 24.1805 -20.9698
lclavicle -3.07247e-014 7.15625e-015
lhumerus -30.0569 28.0289 77.3201
lradius 12.4819
lwrist -61.5517
lhand 4.49587 23.4988
lfingers 7.12502
lthumb 29.889 51.1061
rfemur -17.8382 14.456 16.6419
rtibia 18.6927
rfoot -0.406374 -30.0677
rtoes -1.2526
lfemur -20.4032 -10.7948 -13.9123
ltibia 23.7217
lfoot -15.3231 13.4657
ltoes -3.58648
15
root -19.2576 16.5579 -1.01479 -169.161 -82.1438 183.197
lowerback -12.5679 1.50684 -2.0209
upperback -3.50283 2.12515 -0.646425
thorax 3.31581 0.982059 0.7825
lowerneck 3.45495 5.53413 2.09953
upperneck 18.8827 7.01135 -1.15205
head 5.24647 3.23601 -0.484533
rclavicle -1.89218e-014 -7.95139e-015
rhumerus -30.5299 -1.54308 -95.4083
rradius 18.042
rwrist 19.0623
rhand -2.19527 7.62294
rfingers 7.12502
rthumb 23.4861 -20.9634
lclavicle -1.89218e-014 -7.95139e-015
lhumerus -30.1295 28.8477 76.9886
lradius 12.5483
lwrist -62.1864
lhand 4.28063 23.567
lfingers 7.12502
lthumb 29.6836 51.2111
rfemur -17.8784 14.3092 16.743
rtibia 18.6076
rfoot -0.978836 -29.8972
rtoes 0.0162921
lfemur -20.4898 -11.2045 -13.7127
ltibia 23.8171
lfoot -15.2769 13.9222
ltoes -5.67985
